<svg xmlns="http://www.w3.org/2000/svg" version="1.1" xmlns:xlink="http://www.w3.org/1999/xlink" width="1000" height="1000"><g clip-path="url(#SvgjsClipPath1010)"><rect width="1000" height="1000" fill="#ffffff"></rect><g transform="matrix(4.216867469879518,0,0,4.216867469879518,150,150)"><svg xmlns="http://www.w3.org/2000/svg" version="1.1" xmlns:xlink="http://www.w3.org/1999/xlink" width="166" height="166"><svg width="166" height="166" viewBox="0 0 166 166" fill="none" xmlns="http://www.w3.org/2000/svg">
  <!-- Wedding Rings Icon -->
  <!-- Left Ring -->
  <circle cx="58" cy="90" r="35" stroke="#D4AF37" stroke-width="10" fill="none"></circle>
  <circle cx="58" cy="90" r="28" stroke="#F4D03F" stroke-width="3" fill="none" opacity="0.5"></circle>

  <!-- Right Ring (interlocked) -->
  <circle cx="108" cy="90" r="35" stroke="#D4AF37" stroke-width="10" fill="none"></circle>
  <circle cx="108" cy="90" r="28" stroke="#F4D03F" stroke-width="3" fill="none" opacity="0.5"></circle>

  <!-- Small heart on top -->
  <path d="M83 35 C83 25, 73 20, 68 25 C63 30, 63 40, 83 55 C103 40, 103 30, 98 25 C93 20, 83 25, 83 35" fill="#E74C3C"></path>

  <!-- Diamond sparkle -->
  <path d="M83 62 L86 68 L83 74 L80 68 Z" fill="#FFFFFF" opacity="0.9"></path>
  <path d="M78 68 L83 65 L88 68 L83 71 Z" fill="#FFFFFF" opacity="0.7"></path>
</svg></svg></g></g><defs><clipPath id="SvgjsClipPath1010"><rect width="1000" height="1000" x="0" y="0" rx="350" ry="350"></rect></clipPath></defs></svg>